{"asset": {"version": "2.0", "generator": "Blockbench 5.0.2 glTF exporter"}, "scenes": [{"nodes": [9], "name": "blockbench_export"}], "scene": 0, "nodes": [{"translation": [8.673617379884035e-18, 0.2785832938609546, 0.002130181756271979], "name": "Head"}, {"translation": [0.059482603427602976, -0.08821124033365207, -9.886058519007615e-19], "name": "LeftLowerArm", "rotation": [-0.0, -0.0, -0.17364817766693033, 0.984807753012208]}, {"translation": [0.07964422066053778, 0.22556250000000003, -8.580352676874528e-19], "name": "LeftArm", "children": [1], "rotation": [0.0, 0.0, 0.0, 1.0]}, {"translation": [-0.05948125, -0.08821411267279539, 8.580352676874528e-19], "name": "RightLowerArm", "rotation": [0.0, 0.0, 0.17364817766693033, 0.984807753012208]}, {"translation": [-0.07964375, 0.22556411267279539, -8.580352676874528e-19], "name": "RightArm", "children": [3], "rotation": [0.0, 0.0, 0.0, 1.0]}, {"translation": [0, 0.16874999999999998, 0], "name": "Body", "children": [0, 2, 4]}, {"translation": [0.04999999999999999, 0.16442307692307698, 0.0046881677350427324], "name": "LeftLeg"}, {"translation": [-0.04999999999999999, 0.164425, 0.004688167735042733], "name": "RightLeg"}, {"name": "Model", "children": [5, 6, 7]}, {"name": "Model", "mesh": 0, "children": [8], "skin": 0}], "bufferViews": [{"buffer": 0, "byteOffset": 0, "byteLength": 69120, "target": 34962, "byteStride": 12}, {"buffer": 0, "byteOffset": 69120, "byteLength": 69120, "target": 34962, "byteStride": 12}, {"buffer": 0, "byteOffset": 138240, "byteLength": 46080, "target": 34962, "byteStride": 8}, {"buffer": 0, "byteOffset": 184320, "byteLength": 46080, "target": 34962, "byteStride": 8}, {"buffer": 0, "byteOffset": 230400, "byteLength": 92160, "target": 34962, "byteStride": 16}, {"buffer": 0, "byteOffset": 322560, "byteLength": 3168, "target": 34963}, {"buffer": 0, "byteOffset": 325728, "byteLength": 552, "target": 34963}, {"buffer": 0, "byteOffset": 326280, "byteLength": 72, "target": 34963}, {"buffer": 0, "byteOffset": 326352, "byteLength": 3468, "target": 34963}, {"buffer": 0, "byteOffset": 329820, "byteLength": 864, "target": 34963}, {"buffer": 0, "byteOffset": 330684, "byteLength": 720, "target": 34963}, {"buffer": 0, "byteOffset": 331404, "byteLength": 720, "target": 34963}, {"buffer": 0, "byteOffset": 332124, "byteLength": 720, "target": 34963}, {"buffer": 0, "byteOffset": 332844, "byteLength": 720, "target": 34963}, {"buffer": 0, "byteOffset": 333564, "byteLength": 720, "target": 34963}, {"buffer": 0, "byteOffset": 334284, "byteLength": 720, "target": 34963}, {"buffer": 0, "byteOffset": 335004, "byteLength": 720, "target": 34963}, {"buffer": 0, "byteOffset": 335724, "byteLength": 720, "target": 34963}, {"buffer": 0, "byteOffset": 336444, "byteLength": 720, "target": 34963}, {"buffer": 0, "byteOffset": 337164, "byteLength": 288, "target": 34963}, {"buffer": 0, "byteOffset": 337452, "byteLength": 720, "target": 34963}, {"buffer": 0, "byteOffset": 338172, "byteLength": 288, "target": 34963}, {"buffer": 0, "byteOffset": 338460, "byteLength": 576}, {"buffer": 1, "byteOffset": 0, "byteLength": 132}, {"buffer": 1, "byteOffset": 132, "byteLength": 528}, {"buffer": 1, "byteOffset": 660, "byteLength": 132}, {"buffer": 1, "byteOffset": 792, "byteLength": 528}, {"buffer": 1, "byteOffset": 1320, "byteLength": 132}, {"buffer": 1, "byteOffset": 1452, "byteLength": 528}, {"buffer": 1, "byteOffset": 1980, "byteLength": 132}, {"buffer": 1, "byteOffset": 2112, "byteLength": 528}, {"buffer": 1, "byteOffset": 2640, "byteLength": 132}, {"buffer": 1, "byteOffset": 2772, "byteLength": 528}, {"buffer": 1, "byteOffset": 3300, "byteLength": 132}, {"buffer": 1, "byteOffset": 3432, "byteLength": 528}, {"buffer": 1, "byteOffset": 3960, "byteLength": 132}, {"buffer": 1, "byteOffset": 4092, "byteLength": 528}, {"buffer": 1, "byteOffset": 4620, "byteLength": 132}, {"buffer": 1, "byteOffset": 4752, "byteLength": 528}, {"buffer": 1, "byteOffset": 5280, "byteLength": 132}, {"buffer": 1, "byteOffset": 5412, "byteLength": 396}, {"buffer": 1, "byteOffset": 5808, "byteLength": 8}, {"buffer": 1, "byteOffset": 5816, "byteLength": 32}, {"buffer": 1, "byteOffset": 5848, "byteLength": 132}, {"buffer": 1, "byteOffset": 5980, "byteLength": 528}, {"buffer": 1, "byteOffset": 6508, "byteLength": 132}, {"buffer": 1, "byteOffset": 6640, "byteLength": 528}, {"buffer": 1, "byteOffset": 7168, "byteLength": 132}, {"buffer": 1, "byteOffset": 7300, "byteLength": 528}, {"buffer": 1, "byteOffset": 7828, "byteLength": 132}, {"buffer": 1, "byteOffset": 7960, "byteLength": 528}, {"buffer": 1, "byteOffset": 8488, "byteLength": 132}, {"buffer": 1, "byteOffset": 8620, "byteLength": 528}, {"buffer": 1, "byteOffset": 9148, "byteLength": 132}, {"buffer": 1, "byteOffset": 9280, "byteLength": 528}, {"buffer": 1, "byteOffset": 9808, "byteLength": 132}, {"buffer": 1, "byteOffset": 9940, "byteLength": 528}, {"buffer": 1, "byteOffset": 10468, "byteLength": 132}, {"buffer": 1, "byteOffset": 10600, "byteLength": 396}], "buffers": [{"byteLength": 339036, "uri": "data:application/octet-stream;base64,"}, {"uri": "data:application/octet-stream;base64,", "byteLength": 10996}], "accessors": [{"bufferView": 0, "componentType": 5126, "count": 5760, "max": [0.23518364131450653, 0.7437500357627869, 0.14374995231628418], "min": [-0.23518364131450653, -2.7509836630912332e-09, -0.203125], "type": "VEC3"}, {"bufferView": 1, "componentType": 5126, "count": 5760, "max": [1, 1, 1], "min": [-1, -1, -1], "type": "VEC3"}, {"bufferView": 2, "componentType": 5126, "count": 5760, "max": [0.966796875, 1], "min": [0, 0], "type": "VEC2"}, {"bufferView": 3, "componentType": 5123, "count": 5760, "max": [0, 8, 0, 0], "min": [0, 1, 0, 0], "type": "VEC4"}, {"bufferView": 4, "componentType": 5126, "count": 5760, "max": [0, 1, 0, 0], "min": [0, 1, 0, 0], "type": "VEC4"}, {"bufferView": 5, "componentType": 5123, "count": 1584, "max": [1103], "min": [0], "type": "SCALAR"}, {"bufferView": 6, "componentType": 5123, "count": 276, "max": [1319], "min": [1104], "type": "SCALAR"}, {"bufferView": 7, "componentType": 5123, "count": 36, "max": [1343], "min": [1320], "type": "SCALAR"}, {"bufferView": 8, "componentType": 5123, "count": 1734, "max": [2547], "min": [1344], "type": "SCALAR"}, {"bufferView": 9, "componentType": 5123, "count": 432, "max": [2907], "min": [2548], "type": "SCALAR"}, {"bufferView": 10, "componentType": 5123, "count": 360, "max": [3171], "min": [2908], "type": "SCALAR"}, {"bufferView": 11, "componentType": 5123, "count": 360, "max": [3435], "min": [3172], "type": "SCALAR"}, {"bufferView": 12, "componentType": 5123, "count": 360, "max": [3699], "min": [3436], "type": "SCALAR"}, {"bufferView": 13, "componentType": 5123, "count": 360, "max": [3963], "min": [3700], "type": "SCALAR"}, {"bufferView": 14, "componentType": 5123, "count": 360, "max": [4227], "min": [3964], "type": "SCALAR"}, {"bufferView": 15, "componentType": 5123, "count": 360, "max": [4491], "min": [4228], "type": "SCALAR"}, {"bufferView": 16, "componentType": 5123, "count": 360, "max": [4755], "min": [4492], "type": "SCALAR"}, {"bufferView": 17, "componentType": 5123, "count": 360, "max": [5019], "min": [4756], "type": "SCALAR"}, {"bufferView": 18, "componentType": 5123, "count": 360, "max": [5283], "min": [5020], "type": "SCALAR"}, {"bufferView": 19, "componentType": 5123, "count": 144, "max": [5389], "min": [5284], "type": "SCALAR"}, {"bufferView": 20, "componentType": 5123, "count": 360, "max": [5653], "min": [5390], "type": "SCALAR"}, {"bufferView": 21, "componentType": 5123, "count": 144, "max": [5759], "min": [5654], "type": "SCALAR"}, {"bufferView": 22, "componentType": 5126, "count": 9, "max": [1, 0, 0, 0, 0, 1, 0, 0, 0, 0, 1, 0, 0.1391250044107437, 0, 1.846641219650385e-18, 1], "min": [1, 0, 0, 0, 0, 1, 0, 0, 0, 0, 1, 0, -0.13912682235240936, -0.44733330607414246, -0.004688167944550514, 1], "type": "MAT4"}, {"bufferView": 23, "componentType": 5126, "count": 33, "type": "SCALAR", "min": [0.0], "max": [1.0666667222976685]}, {"bufferView": 24, "componentType": 5126, "count": 33, "type": "VEC4", "min": [-0.013029180576951382, -1.0287212089558318e-13, -0.001127777805614425, 0.9999144806285755], "max": [9.121596401805434e-13, 3.104707185390995e-08, 0.0, 1.0]}, {"bufferView": 25, "componentType": 5126, "count": 33, "type": "SCALAR", "min": [0.0], "max": [1.0666667222976685]}, {"bufferView": 26, "componentType": 5126, "count": 33, "type": "VEC4", "min": [0.0, 0.0, 0.0, 0.9996952604244432], "max": [0.0171767034663481, 0.016420812728875987, 0.006686108902560667, 1.0]}, {"bufferView": 27, "componentType": 5126, "count": 33, "type": "SCALAR", "min": [0.0], "max": [1.0666667222976685]}, {"bufferView": 28, "componentType": 5126, "count": 33, "type": "VEC4", "min": [-1.5032552416695095e-08, -2.4300139805934707e-08, -0.19583988719422052, 0.9806358848133975], "max": [3.209919901101049e-08, 3.4417764067292025e-08, -0.17364817766693036, 0.9848077530122081]}, {"bufferView": 29, "componentType": 5126, "count": 33, "type": "SCALAR", "min": [0.0], "max": [1.0666667222976685]}, {"bufferView": 30, "componentType": 5126, "count": 33, "type": "VEC4", "min": [0.0, -0.015716652396224138, -0.004010420850400977, 0.9997512296596317], "max": [0.01530954460829126, 2.307323311742507e-08, 0.0, 1.0]}, {"bufferView": 31, "componentType": 5126, "count": 33, "type": "SCALAR", "min": [0.0], "max": [1.0666667222976685]}, {"bufferView": 32, "componentType": 5126, "count": 33, "type": "VEC4", "min": [-2.8533772629344718e-08, -1.579876981253338e-08, 0.17364811818542794, 0.9817392293079156], "max": [2.7955251294016447e-08, 3.1255442311432236e-08, 0.19023166307925668, 0.9848077635003999]}, {"bufferView": 33, "componentType": 5126, "count": 33, "type": "SCALAR", "min": [0.0], "max": [1.0666667222976685]}, {"bufferView": 34, "componentType": 5126, "count": 33, "type": "VEC4", "min": [-0.031213390325088377, -0.0030878976179708295, -0.002475605929867876, 0.9995049077058075], "max": [0.0, 0.0, 0.0, 1.0]}, {"bufferView": 35, "componentType": 5126, "count": 33, "type": "SCALAR", "min": [0.0], "max": [1.0666667222976685]}, {"bufferView": 36, "componentType": 5126, "count": 33, "type": "VEC4", "min": [-0.030520789992526744, 0.0, -0.0027807740810028695, 0.9995294406367723], "max": [0.0, 0.001282955214969207, 0.0, 1.0]}, {"bufferView": 37, "componentType": 5126, "count": 33, "type": "SCALAR", "min": [0.0], "max": [1.0666667222976685]}, {"bufferView": 38, "componentType": 5126, "count": 33, "type": "VEC4", "min": [-0.0117485453396367, -7.4415616115867976e-09, -0.0010169279846056697, 0.9999304663524743], "max": [1.396966192685107e-09, 1.4688015738891058e-11, 1.1641383890992956e-10, 1.0]}, {"bufferView": 39, "componentType": 5126, "count": 33, "type": "SCALAR", "min": [0.0], "max": [1.0666667222976685]}, {"bufferView": 40, "componentType": 5126, "count": 33, "type": "VEC3", "min": [0.0, -0.009394726753234862, 0.0], "max": [0.0, -0.00584782987833023, 0.0]}, {"bufferView": 41, "componentType": 5126, "count": 2, "type": "SCALAR", "min": [0.0], "max": [1.0666667222976685]}, {"bufferView": 42, "componentType": 5126, "count": 2, "type": "VEC4", "min": [0.003534707647263698, 0.03134156711099443, 0.00019459169963663195, 0.9995024633020901], "max": [0.003534707647263698, 0.03134156711099443, 0.00019459169963663195, 0.9995024633020901]}, {"bufferView": 43, "componentType": 5126, "count": 33, "type": "SCALAR", "min": [0.0], "max": [1.0666667222976685]}, {"bufferView": 44, "componentType": 5126, "count": 33, "type": "VEC4", "min": [-0.22579006043298008, 0.10205261950526906, 0.23842401357060009, 0.7951928316999577], "max": [0.2169376314252986, 0.5001547621626103, 0.31656420575972677, 0.93830916873462]}, {"bufferView": 45, "componentType": 5126, "count": 33, "type": "SCALAR", "min": [0.0], "max": [1.0666667222976685]}, {"bufferView": 46, "componentType": 5126, "count": 33, "type": "VEC4", "min": [1.8923086583848052e-08, -2.8072457952931e-08, -0.6076802563043526, 0.7941817840380574], "max": [8.44692297841871e-08, 2.2475701239370025e-08, -0.3900486807061709, 0.9207942368843185]}, {"bufferView": 47, "componentType": 5126, "count": 33, "type": "SCALAR", "min": [0.0], "max": [1.0666667222976685]}, {"bufferView": 48, "componentType": 5126, "count": 33, "type": "VEC4", "min": [-0.2705146690791012, -0.42772009389509813, -0.3303849940223833, 0.8401837631871065], "max": [0.17451094159234082, -0.018529177507618167, -0.23928056604985737, 0.938196081101912]}, {"bufferView": 49, "componentType": 5126, "count": 33, "type": "SCALAR", "min": [0.0], "max": [1.0666667222976685]}, {"bufferView": 50, "componentType": 5126, "count": 33, "type": "VEC4", "min": [-1.5615830690113427e-09, -1.7949699640456025e-09, 0.3723769284509636, 0.8056523000642173], "max": [7.243218578944934e-08, 4.5102812652282566e-08, 0.59238869958941, 0.9280815821669048]}, {"bufferView": 51, "componentType": 5126, "count": 33, "type": "SCALAR", "min": [0.0], "max": [1.0666667222976685]}, {"bufferView": 52, "componentType": 5126, "count": 33, "type": "VEC4", "min": [-0.5888764730703898, -0.0849548608617139, -0.09010112892167181, -0.9911303616831131], "max": [0.0756188714413736, 0.06999510868315463, 0.05718332137608754, 0.9956105499139266]}, {"bufferView": 53, "componentType": 5126, "count": 33, "type": "SCALAR", "min": [0.0], "max": [1.0666667222976685]}, {"bufferView": 54, "componentType": 5126, "count": 33, "type": "VEC4", "min": [-0.6007300905466441, -0.031479546338506505, -0.03768492224142604, -0.9972212180559561], "max": [0.030852262832053206, 0.04310095124856243, 0.02855530008172196, 0.9990603884780689]}, {"bufferView": 55, "componentType": 5126, "count": 33, "type": "SCALAR", "min": [0.0], "max": [1.0666667222976685]}, {"bufferView": 56, "componentType": 5126, "count": 33, "type": "VEC4", "min": [-0.005009664547702258, -0.00021853440668526572, -0.04405205493546912, 0.9990166763940385], "max": [-0.005004896123949508, 0.00021851954551228272, 0.04318562964698147, 0.9999873575351859]}, {"bufferView": 57, "componentType": 5126, "count": 33, "type": "SCALAR", "min": [0.0], "max": [1.0666667222976685]}, {"bufferView": 58, "componentType": 5126, "count": 33, "type": "VEC3", "min": [0.0, -0.034498373568058016, 0.0], "max": [1.8731309094894258e-18, -0.011065507829189301, 4.465892099116864e-25]}], "materials": [{"pbrMetallicRoughness": {"metallicFactor": 0, "roughnessFactor": 1, "baseColorTexture": {"index": 0}}, "alphaMode": "MASK", "alphaCutoff": 0.05, "doubleSided": true, "name": "Body"}, {"pbrMetallicRoughness": {"metallicFactor": 0, "roughnessFactor": 1, "baseColorTexture": {"index": 1}}, "alphaMode": "MASK", "alphaCutoff": 0.05, "doubleSided": true, "name": "Backpack"}, {"pbrMetallicRoughness": {"metallicFactor": 0, "roughnessFactor": 1, "baseColorTexture": {"index": 2}}, "alphaMode": "MASK", "alphaCutoff": 0.05, "doubleSided": true, "name": "Buckle"}, {"pbrMetallicRoughness": {"metallicFactor": 0, "roughnessFactor": 1, "baseColorTexture": {"index": 3}}, "alphaMode": "MASK", "alphaCutoff": 0.05, "doubleSided": true, "name": "Helm"}, {"pbrMetallicRoughness": {"metallicFactor": 0, "roughnessFactor": 1, "baseColorTexture": {"index": 4}}, "alphaMode": "MASK", "alphaCutoff": 0.05, "doubleSided": true, "name": "Shoulder"}, {"pbrMetallicRoughness": {"metallicFactor": 0, "roughnessFactor": 1, "baseColorTexture": {"index": 5}}, "alphaMode": "MASK", "alphaCutoff": 0.05, "doubleSided": true, "name": "UpperArm"}, {"pbrMetallicRoughness": {"metallicFactor": 0, "roughnessFactor": 1, "baseColorTexture": {"index": 6}}, "alphaMode": "MASK", "alphaCutoff": 0.05, "doubleSided": true, "name": "Elbow"}, {"pbrMetallicRoughness": {"metallicFactor": 0, "roughnessFactor": 1, "baseColorTexture": {"index": 7}}, "alphaMode": "MASK", "alphaCutoff": 0.05, "doubleSided": true, "name": "forarm_hand"}, {"pbrMetallicRoughness": {"metallicFactor": 0, "roughnessFactor": 1, "baseColorTexture": {"index": 8}}, "alphaMode": "MASK", "alphaCutoff": 0.05, "doubleSided": true, "name": "UpperLeg"}, {"pbrMetallicRoughness": {"metallicFactor": 0, "roughnessFactor": 1, "baseColorTexture": {"index": 9}}, "alphaMode": "MASK", "alphaCutoff": 0.05, "doubleSided": true, "name": "Foot"}], "textures": [{"sampler": 0, "source": 0, "name": "Body"}, {"sampler": 1, "source": 1, "name": "Backpack"}, {"sampler": 2, "source": 2, "name": "Buckle"}, {"sampler": 3, "source": 3, "name": "Helm"}, {"sampler": 4, "source": 4, "name": "Shoulder"}, {"sampler": 5, "source": 5, "name": "UpperArm"}, {"sampler": 6, "source": 6, "name": "Elbow"}, {"sampler": 7, "source": 7, "name": "forarm_hand"}, {"sampler": 8, "source": 8, "name": "UpperLeg"}, {"sampler": 9, "source": 9, "name": "Foot"}], "samplers": [{"magFilter": 9728, "minFilter": 9728, "wrapS": 33071, "wrapT": 33071}, {"magFilter": 9728, "minFilter": 9728, "wrapS": 33071, "wrapT": 33071}, {"magFilter": 9728, "minFilter": 9728, "wrapS": 33071, "wrapT": 33071}, {"magFilter": 9728, "minFilter": 9728, "wrapS": 33071, "wrapT": 33071}, {"magFilter": 9728, "minFilter": 9728, "wrapS": 33071, "wrapT": 33071}, {"magFilter": 9728, "minFilter": 9728, "wrapS": 33071, "wrapT": 33071}, {"magFilter": 9728, "minFilter": 9728, "wrapS": 33071, "wrapT": 33071}, {"magFilter": 9728, "minFilter": 9728, "wrapS": 33071, "wrapT": 33071}, {"magFilter": 9728, "minFilter": 9728, "wrapS": 33071, "wrapT": 33071}, {"magFilter": 9728, "minFilter": 9728, "wrapS": 33071, "wrapT": 33071}], "images": [{"uri": "Astronaut_textures/Body.png"}, {"uri": "Astronaut_textures/Backpack.png"}, {"uri": "Astronaut_textures/Buckle.png"}, {"uri": "Astronaut_textures/Helm.png"}, {"uri": "Astronaut_textures/Shoulder.png"}, {"uri": "Astronaut_textures/UpperArm.png"}, {"uri": "Astronaut_textures/Elbow.png"}, {"uri": "Astronaut_textures/forarm_hand.png"}, {"uri": "Astronaut_textures/UpperLeg.png"}, {"uri": "Astronaut_textures/Foot.png"}], "meshes": [{"primitives": [{"mode": 4, "attributes": {"POSITION": 0, "NORMAL": 1, "TEXCOORD_0": 2, "JOINTS_0": 3, "WEIGHTS_0": 4}, "indices": 5, "material": 0}, {"mode": 4, "attributes": {"POSITION": 0, "NORMAL": 1, "TEXCOORD_0": 2, "JOINTS_0": 3, "WEIGHTS_0": 4}, "indices": 6, "material": 1}, {"mode": 4, "attributes": {"POSITION": 0, "NORMAL": 1, "TEXCOORD_0": 2, "JOINTS_0": 3, "WEIGHTS_0": 4}, "indices": 7, "material": 2}, {"mode": 4, "attributes": {"POSITION": 0, "NORMAL": 1, "TEXCOORD_0": 2, "JOINTS_0": 3, "WEIGHTS_0": 4}, "indices": 8, "material": 3}, {"mode": 4, "attributes": {"POSITION": 0, "NORMAL": 1, "TEXCOORD_0": 2, "JOINTS_0": 3, "WEIGHTS_0": 4}, "indices": 9, "material": 1}, {"mode": 4, "attributes": {"POSITION": 0, "NORMAL": 1, "TEXCOORD_0": 2, "JOINTS_0": 3, "WEIGHTS_0": 4}, "indices": 10, "material": 4}, {"mode": 4, "attributes": {"POSITION": 0, "NORMAL": 1, "TEXCOORD_0": 2, "JOINTS_0": 3, "WEIGHTS_0": 4}, "indices": 11, "material": 5}, {"mode": 4, "attributes": {"POSITION": 0, "NORMAL": 1, "TEXCOORD_0": 2, "JOINTS_0": 3, "WEIGHTS_0": 4}, "indices": 12, "material": 6}, {"mode": 4, "attributes": {"POSITION": 0, "NORMAL": 1, "TEXCOORD_0": 2, "JOINTS_0": 3, "WEIGHTS_0": 4}, "indices": 13, "material": 7}, {"mode": 4, "attributes": {"POSITION": 0, "NORMAL": 1, "TEXCOORD_0": 2, "JOINTS_0": 3, "WEIGHTS_0": 4}, "indices": 14, "material": 4}, {"mode": 4, "attributes": {"POSITION": 0, "NORMAL": 1, "TEXCOORD_0": 2, "JOINTS_0": 3, "WEIGHTS_0": 4}, "indices": 15, "material": 5}, {"mode": 4, "attributes": {"POSITION": 0, "NORMAL": 1, "TEXCOORD_0": 2, "JOINTS_0": 3, "WEIGHTS_0": 4}, "indices": 16, "material": 6}, {"mode": 4, "attributes": {"POSITION": 0, "NORMAL": 1, "TEXCOORD_0": 2, "JOINTS_0": 3, "WEIGHTS_0": 4}, "indices": 17, "material": 7}, {"mode": 4, "attributes": {"POSITION": 0, "NORMAL": 1, "TEXCOORD_0": 2, "JOINTS_0": 3, "WEIGHTS_0": 4}, "indices": 18, "material": 8}, {"mode": 4, "attributes": {"POSITION": 0, "NORMAL": 1, "TEXCOORD_0": 2, "JOINTS_0": 3, "WEIGHTS_0": 4}, "indices": 19, "material": 9}, {"mode": 4, "attributes": {"POSITION": 0, "NORMAL": 1, "TEXCOORD_0": 2, "JOINTS_0": 3, "WEIGHTS_0": 4}, "indices": 20, "material": 8}, {"mode": 4, "attributes": {"POSITION": 0, "NORMAL": 1, "TEXCOORD_0": 2, "JOINTS_0": 3, "WEIGHTS_0": 4}, "indices": 21, "material": 9}]}], "skins": [{"inverseBindMatrices": 22, "joints": [8, 5, 0, 2, 1, 4, 3, 6, 7], "skeleton": 8}], "animations": [{"name": "Idle", "channels": [{"sampler": 0, "target": {"node": 0, "path": "rotation"}}, {"sampler": 1, "target": {"node": 2, "path": "rotation"}}, {"sampler": 2, "target": {"node": 1, "path": "rotation"}}, {"sampler": 3, "target": {"node": 4, "path": "rotation"}}, {"sampler": 4, "target": {"node": 3, "path": "rotation"}}, {"sampler": 5, "target": {"node": 6, "path": "rotation"}}, {"sampler": 6, "target": {"node": 7, "path": "rotation"}}, {"sampler": 7, "target": {"node": 5, "path": "rotation"}}, {"sampler": 8, "target": {"node": 8, "path": "translation"}}], "samplers": [{"input": 23, "output": 24, "interpolation": "LINEAR"}, {"input": 25, "output": 26, "interpolation": "LINEAR"}, {"input": 27, "output": 28, "interpolation": "LINEAR"}, {"input": 29, "output": 30, "interpolation": "LINEAR"}, {"input": 31, "output": 32, "interpolation": "LINEAR"}, {"input": 33, "output": 34, "interpolation": "LINEAR"}, {"input": 35, "output": 36, "interpolation": "LINEAR"}, {"input": 37, "output": 38, "interpolation": "LINEAR"}, {"input": 39, "output": 40, "interpolation": "LINEAR"}]}, {"name": "Walking", "channels": [{"sampler": 0, "target": {"node": 0, "path": "rotation"}}, {"sampler": 1, "target": {"node": 2, "path": "rotation"}}, {"sampler": 2, "target": {"node": 1, "path": "rotation"}}, {"sampler": 3, "target": {"node": 4, "path": "rotation"}}, {"sampler": 4, "target": {"node": 3, "path": "rotation"}}, {"sampler": 5, "target": {"node": 6, "path": "rotation"}}, {"sampler": 6, "target": {"node": 7, "path": "rotation"}}, {"sampler": 7, "target": {"node": 5, "path": "rotation"}}, {"sampler": 8, "target": {"node": 8, "path": "translation"}}], "samplers": [{"input": 41, "output": 42, "interpolation": "LINEAR"}, {"input": 43, "output": 44, "interpolation": "LINEAR"}, {"input": 45, "output": 46, "interpolation": "LINEAR"}, {"input": 47, "output": 48, "interpolation": "LINEAR"}, {"input": 49, "output": 50, "interpolation": "LINEAR"}, {"input": 51, "output": 52, "interpolation": "LINEAR"}, {"input": 53, "output": 54, "interpolation": "LINEAR"}, {"input": 55, "output": 56, "interpolation": "LINEAR"}, {"input": 57, "output": 58, "interpolation": "LINEAR"}]}]}