<svg xmlns="http://www.w3.org/2000/svg" xml:space="preserve" width="306mm" height="317.48" viewBox="0 0 306 84"><g transform="translate(58.742 -33.707)"><path d="M-50.742 33.707a8 8 0 0 0-8 8v48a8 8 0 0 0 8 8 8 8 0 0 0 8-8v-16h16.317a8 8 0 0 0 8.001-8 8 8 0 0 0-8-8h-16.318v-8h24a8 8 0 0 0 8-8 8 8 0 0 0-8-8z" style="fill:#ab37c8;stroke-width:.182282;stroke-linecap:round;stroke-linejoin:round"/><path d="M3.258 33.707a8 8 0 0 0-8 8v48a8 8 0 0 0 8 8 8 8 0 0 0 8-8v-48a8 8 0 0 0-8-8M47.258 53.706a8 8 0 0 0-8 8v48a8 8 0 0 0 8 8 8 8 0 0 0 8-8v-6a26 26 0 0 0 10 2 26 26 0 0 0 26-26 26 26 0 0 0-26-26 26 26 0 0 0-11.865 2.866 8 8 0 0 0-6.135-2.866m18 14a12 12 0 0 1 12 12 12 12 0 0 1-12 12 12 12 0 0 1-12-12 12 12 0 0 1 12-12" style="fill:#ab37c8;stroke-width:.266332;stroke-linecap:round;stroke-linejoin:round"/><path d="M116.565 33.738c-4.257.195-8.397 1.306-12.177 3.833-5.503 3.679-9.802 8.954-6.427 20.67 4.012 13.927 34.821 12.279 30.735 21.782-2.523 5.869-18.508-1.28-21.365-1.515l-.008.029a8.078 8.078 0 0 0-9.965 7.853c0 4.034 2.975 6.835 6.972 8.002 3.998 1.166 16.593 3.825 21.623 3.537 8.265-.473 12.708-4.497 14.258-6.205 1.645-1.811 2.963-4.883 3.738-7.145 1.171-3.418.981-7.34.084-10.84-.546-2.13-1.735-5.267-3.265-6.845-2.98-3.073-7.711-6.006-12.474-7.456-5.95-1.812-17.188-5.297-15.907-8.6 2.227-5.735 9.426-2.148 19.78 2.252q.598.322 1.243.54l.107.047.004-.011a8.077 8.077 0 0 0 10.55-7.69c0-3.803-4.392-7.96-9.572-9.59s-10.838-2.973-17.934-2.648z" style="fill:#00d455;stroke-width:.268911;stroke-linecap:round;stroke-linejoin:round"/><path d="M17.258 61.706v28.105a8 8 0 0 0 8 8 8 8 0 0 0 8-8V61.707z" style="fill:#ab37c8;stroke-width:.193714;stroke-linecap:round;stroke-linejoin:round"/><circle cx="25.258" cy="61.707" r="8" style="fill:#00d455;stroke-width:.266332;stroke-linecap:round;stroke-linejoin:round"/><path d="M159.258 33.707a8 8 0 0 0-8 8v48a8 8 0 0 0 8 8 8 8 0 0 0 8-8v-48a8 8 0 0 0-8-8M203.258 53.706a8 8 0 0 0-8 8v48a8 8 0 0 0 8 8 8 8 0 0 0 8-8v-6a26 26 0 0 0 10 2 26 26 0 0 0 26-26 26 26 0 0 0-26-26 26 26 0 0 0-11.865 2.866 8 8 0 0 0-6.135-2.866m18 14a12 12 0 0 1 12 12 12 12 0 0 1-12 12 12 12 0 0 1-12-12 12 12 0 0 1 12-12M173.258 61.706v28.105a8 8 0 0 0 8 8 8 8 0 0 0 8-8V61.707z" style="fill:#00d455;stroke-width:.266332;stroke-linecap:round;stroke-linejoin:round"/><circle cx="181.258" cy="61.707" r="8" style="fill:#ab37c8;stroke-width:.266332;stroke-linecap:round;stroke-linejoin:round"/></g></svg>